<svg version="1.1" id="Layer_1" xmlns="http://www.w3.org/2000/svg" xmlns:xlink="http://www.w3.org/1999/xlink" x="0px" y="0px"
	 width="100%" viewBox="0 0 102 102" enable-background="new 0 0 102 102" xml:space="preserve">
<path fill="#EDF1FF" opacity="1.000000" stroke="none" 
	d="
M1.000000,39.000000 
	C1.000000,26.362562 1.000000,13.725125 1.000000,1.043844 
	C34.892265,1.043844 68.784599,1.043844 103.000000,1.043844 
	C103.000000,17.352810 103.000000,33.707745 102.816849,50.864426 
	C100.742172,59.143806 99.592766,66.609268 103.000000,74.000000 
	C103.000000,83.643112 103.000000,93.286224 103.000000,102.964668 
	C69.106430,102.964668 35.212814,102.964668 1.000000,102.964668 
	C1.000000,86.980522 1.000000,70.958916 1.367486,54.479893 
	C8.161325,49.720669 7.859499,43.551483 1.000000,39.000000 
M89.186584,16.156950 
	C88.104530,16.397326 87.022476,16.637699 85.047089,16.761114 
	C82.043800,16.803038 79.040512,16.844961 75.298126,16.546577 
	C56.578472,14.137412 45.806046,23.140249 46.119751,41.081692 
	C46.301662,51.485550 46.798931,61.883919 46.978134,72.287788 
	C47.069435,77.588348 48.881126,83.802017 41.185043,86.191010 
	C49.791260,86.191010 58.397480,86.191010 68.358681,86.191010 
	C66.517929,85.094872 65.835594,84.412682 65.055695,84.272194 
	C61.793659,83.684608 60.693539,81.555939 60.702480,78.558792 
	C60.753086,61.596870 60.586075,44.629837 60.966927,27.675182 
	C61.165928,18.816126 68.045448,15.482022 76.268860,20.350237 
	C76.527039,20.885296 76.785225,21.420353 76.978882,22.897837 
	C77.051910,42.309845 77.124939,61.721851 76.996536,81.844467 
	C75.980324,83.010620 74.964111,84.176773 73.707779,85.618462 
	C81.002342,85.618462 87.822289,85.618462 95.400452,85.618462 
	C93.349434,83.979675 92.086594,82.970642 90.874474,81.553040 
	C90.874474,81.553040 90.818970,81.144989 90.957985,80.198830 
	C90.963272,60.375145 90.992729,40.551380 90.925674,20.727940 
	C90.920586,19.223211 90.230476,17.720800 89.186584,16.156950 
M28.943581,41.915997 
	C31.858505,41.915997 34.773430,41.915997 37.688354,41.915997 
	C37.679214,41.329277 37.670074,40.742554 37.660931,40.155834 
	C34.453369,39.996037 31.245806,39.836239 27.260708,39.637707 
	C27.260708,34.911716 27.260708,30.420473 27.260708,26.010323 
	C22.619511,26.962515 18.741320,27.758167 14.178421,28.694296 
	C14.178421,32.216610 14.178421,35.930454 14.178421,39.534122 
	C11.391104,39.862926 9.283002,40.111603 7.174901,40.360283 
	C7.197039,40.756187 7.219178,41.152088 7.241316,41.547989 
	C9.432761,41.742359 11.624207,41.936729 14.420687,42.184761 
	C14.420687,44.406513 14.397330,46.518005 14.424664,48.628845 
	C14.553817,58.602539 14.394356,68.592857 14.947190,78.543381 
	C15.284365,84.612228 19.777153,87.761292 26.460796,87.789665 
	C32.898499,87.816994 37.309376,84.266617 38.222515,77.847549 
	C35.291428,80.158623 33.733768,85.123772 28.942591,81.171928 
	C28.940765,71.418037 29.009521,61.663334 28.897518,51.910706 
	C28.860052,48.648422 28.360979,45.391441 28.943581,41.915997 
z"/>
<path fill="#5240F6" opacity="1.000000" stroke="none" 
	d="
M1.000000,39.466118 
	C7.859499,43.551483 8.161325,49.720669 1.367486,54.011234 
	C1.000000,49.310745 1.000000,44.621487 1.000000,39.466118 
z"/>
<path fill="#6345F6" opacity="1.000000" stroke="none" 
	d="
M103.000000,73.531380 
	C99.592766,66.609268 100.742172,59.143806 102.816849,51.333084 
	C103.000000,58.354252 103.000000,65.708504 103.000000,73.531380 
z"/>
<path fill="#5541F6" opacity="1.000000" stroke="none" 
	d="
M76.045853,19.796329 
	C68.045448,15.482022 61.165928,18.816126 60.966927,27.675182 
	C60.586075,44.629837 60.753086,61.596870 60.702480,78.558792 
	C60.693539,81.555939 61.793659,83.684608 65.055695,84.272194 
	C65.835594,84.412682 66.517929,85.094872 68.358681,86.191010 
	C58.397480,86.191010 49.791260,86.191010 41.185043,86.191010 
	C48.881126,83.802017 47.069435,77.588348 46.978134,72.287788 
	C46.798931,61.883919 46.301662,51.485550 46.119751,41.081692 
	C45.806046,23.140249 56.578472,14.137412 75.655655,17.080433 
	C76.024071,18.341637 76.034958,19.068983 76.045853,19.796329 
z"/>
<path fill="#503AF6" opacity="1.000000" stroke="none" 
	d="
M76.157349,20.073284 
	C76.034958,19.068983 76.024071,18.341637 76.025200,17.250587 
	C79.040512,16.844961 82.043800,16.803038 85.718689,17.102692 
	C87.565987,17.626663 88.741684,17.809057 89.957924,18.459105 
	C90.005562,39.581055 90.012657,60.235352 90.097565,81.106949 
	C90.326073,81.603287 90.542198,81.815742 90.823753,81.961617 
	C92.086594,82.970642 93.349434,83.979675 95.400452,85.618462 
	C87.822289,85.618462 81.002342,85.618462 73.707779,85.618462 
	C74.964111,84.176773 75.980324,83.010620 77.336029,81.141426 
	C77.758659,61.697289 77.852142,42.956215 77.887260,24.215029 
	C77.888672,23.462353 77.337242,22.708641 77.043404,21.955410 
	C76.785225,21.420353 76.527039,20.885296 76.157349,20.073284 
z"/>
<path fill="#543FF6" opacity="1.000000" stroke="none" 
	d="
M28.939137,82.127205 
	C33.733768,85.123772 35.291428,80.158623 38.222515,77.847549 
	C37.309376,84.266617 32.898499,87.816994 26.460796,87.789665 
	C19.777153,87.761292 15.284365,84.612228 14.947190,78.543381 
	C14.394356,68.592857 14.553817,58.602539 14.424664,48.628845 
	C14.397330,46.518005 14.420687,44.406513 14.420687,42.184761 
	C11.624207,41.936729 9.432761,41.742359 7.241316,41.547989 
	C7.219178,41.152088 7.197039,40.756187 7.174901,40.360283 
	C9.283002,40.111603 11.391104,39.862926 14.178421,39.534122 
	C14.178421,35.930454 14.178421,32.216610 14.178421,28.694296 
	C18.741320,27.758167 22.619511,26.962515 27.260708,26.010323 
	C27.260708,30.420473 27.260708,34.911716 27.260708,39.637707 
	C31.245806,39.836239 34.453369,39.996037 37.660931,40.155834 
	C37.670074,40.742554 37.679214,41.329277 37.688354,41.915997 
	C34.773430,41.915997 31.858505,41.915997 28.176834,42.268600 
	C27.336771,54.346825 27.202217,66.072792 27.268547,77.797630 
	C27.276730,79.243927 28.356134,80.684158 28.939137,82.127205 
z"/>
<path fill="#CDDAFD" opacity="1.000000" stroke="none" 
	d="
M28.940865,81.649567 
	C28.356134,80.684158 27.276730,79.243927 27.268547,77.797630 
	C27.202217,66.072792 27.336771,54.346825 27.741501,42.376617 
	C28.360979,45.391441 28.860052,48.648422 28.897518,51.910706 
	C29.009521,61.663334 28.940765,71.418037 28.940865,81.649567 
z"/>
<path fill="#8998FA" opacity="1.000000" stroke="none" 
	d="
M90.019760,80.889648 
	C90.012657,60.235352 90.005562,39.581055 89.978378,18.163189 
	C89.925125,17.005516 89.891960,16.611412 89.858795,16.217310 
	C90.230476,17.720800 90.920586,19.223211 90.925674,20.727940 
	C90.992729,40.551380 90.963272,60.375145 90.686005,80.616272 
	C90.414032,81.033707 90.019760,80.889648 90.019760,80.889648 
z"/>
<path fill="#B290F7" opacity="1.000000" stroke="none" 
	d="
M77.011139,22.426624 
	C77.337242,22.708641 77.888672,23.462353 77.887260,24.215029 
	C77.852142,42.956215 77.758659,61.697289 77.436737,80.786118 
	C77.124939,61.721851 77.051910,42.309845 77.011139,22.426624 
z"/>
<path fill="#4833F6" opacity="1.000000" stroke="none" 
	d="
M89.522690,16.187130 
	C89.891960,16.611412 89.925125,17.005516 89.937836,17.695534 
	C88.741684,17.809057 87.565987,17.626663 86.165352,17.161171 
	C87.022476,16.637699 88.104530,16.397326 89.522690,16.187130 
z"/>
<path fill="#4833F6" opacity="1.000000" stroke="none" 
	d="
M90.097565,81.106949 
	C90.019760,80.889648 90.414032,81.033707 90.616501,81.089348 
	C90.818970,81.144989 90.874474,81.553040 90.849113,81.757324 
	C90.542198,81.815742 90.326073,81.603287 90.097565,81.106949 
z"/>
</svg>